#!OML:ASF X:\für Bonn\!DataBase\2005_08_12_Daniel\c3d\Daniel.ASF
:FULLY-SPECIFIED
:DEGREES
78
root 1.01405 16.4972 -16.0542 353.168 14.7773 -2.09447
lowerback 46.6446 1.15985 1.60502
upperback 14.3052 2.09924 -3.4343
thorax -5.08108 1.38967 -5.36383
lowerneck 7.27636 -0.223419 -4.39642
upperneck 15.2085 -0.520978 1.99648
head 3.73085 -0.372927 1.42312
rclavicle 6.67916e-014 -1.11319e-014
rhumerus 10.1412 -3.54951 -95.2022
rradius 15.013
rwrist 22.0335
rhand -18.6865 15.629
rfingers 7.12502
rthumb 7.60777 -14.2142
lclavicle 6.67916e-014 -1.11319e-014
lhumerus -16.5619 -3.91047 85.5135
lradius 80.1492
lwrist 3.33314
lhand -13.2245 -9.16796
lfingers 7.12502
lthumb 12.8768 20.4148
rfemur -26.3465 -22.7435 20.0096
rtibia 54.832
rfoot -22.9249 -363.687
rtoes -9.52534
lfemur -32.1555 4.65565 -19.6182
ltibia 60.0439
lfoot -19.2599 -14.7682
ltoes -5.57811
79
root 0.979761 16.4279 -16.0497 353.256 15.0606 -2.12775
lowerback 47.3593 1.07781 1.88648
upperback 14.357 2.14006 -3.43963
thorax -5.1785 1.42621 -5.5426
lowerneck 7.00616 -0.40078 -4.4197
upperneck 15.2123 -0.756135 2.13301
head 3.79197 -0.482407 1.47219
rclavicle 1.55052e-014 -3.53837e-014
rhumerus 10.9088 -4.27612 -95.1674
rradius 14.748
rwrist 22.5375
rhand -18.8787 15.6971
rfingers 7.12502
rthumb 7.42219 -14.1527
lclavicle 1.55052e-014 -3.53837e-014
lhumerus -16.4771 -4.00137 85.5536
lradius 80.3648
lwrist 3.16951
lhand -13.3122 -9.32843
lfingers 7.12502
lthumb 12.7922 20.2596
rfemur -27.0815 -23.1771 20.1695
rtibia 55.9353
rfoot -23.4838 -363.384
rtoes -9.16455
lfemur -32.9407 4.56456 -19.6034
ltibia 61.094
lfoot -19.7662 -14.5617
ltoes -5.88433
80
root 0.945881 16.3578 -16.0456 353.36 15.329 -2.14395
lowerback 49.0607 1.00243 2.0741
upperback 13.4211 2.17304 -3.49718
thorax -5.28669 1.47124 -5.60848
lowerneck 6.64735 -0.560356 -4.49755
upperneck 15.2694 -0.964852 2.25616
head 3.889 -0.58221 1.52697
rclavicle -2.14687e-014 8.74653e-015
rhumerus 11.6961 -4.93062 -95.0871
rradius 14.4918
rwrist 22.9739
rhand -19.1264 15.7633
rfingers 7.12502
rthumb 7.18318 -14.0948
lclavicle -2.14687e-014 8.74653e-015
lhumerus -16.4071 -4.05548 85.6193
lradius 80.4767
lwrist 3.00489
lhand -13.4488 -9.52567
lfingers 7.12502
lthumb 12.6605 20.0706
rfemur -27.8579 -23.6149 20.3237
rtibia 57.0647
rfoot -24.0283 -363.096
rtoes -8.93495
lfemur -33.7668 4.44894 -19.601
ltibia 62.1852
lfoot -20.2644 -14.3324
ltoes -6.11724
81
root 0.912308 16.2851 -16.042 353.458 15.5796 -2.14174
lowerback 49.8212 0.923314 2.308
upperback 13.4171 2.20925 -3.50334
thorax -5.38486 1.50367 -5.75015
lowerneck 6.31506 -0.727224 -4.5554
upperneck 15.3374 -1.18269 2.37126
head 3.9863 -0.685523 1.57492
rclavicle -3.10104e-014 2.80286e-014
rhumerus 12.4967 -5.66267 -95.0452
rradius 14.2139
rwrist 23.5013
rhand -19.326 15.8624
rfingers 7.12502
rthumb 6.99046 -14.0021
lclavicle -3.10104e-014 2.80286e-014
lhumerus -16.3437 -4.07637 85.6502
lradius 80.4869
lwrist 2.85118
lhand -13.4509 -9.75682
lfingers 7.12502
lthumb 12.6585 19.8396
rfemur -28.6592 -24.0606 20.4589
rtibia 58.2269
rfoot -24.5462 -362.834
rtoes -8.73457
lfemur -34.5986 4.29926 -19.5953
ltibia 63.3125
lfoot -20.7329 -14.1822
ltoes -6.10696
82
root 0.879657 16.2107 -16.0378 353.581 15.7839 -2.13688
lowerback 50.5071 0.869697 2.54015
upperback 13.4214 2.27694 -3.50712
thorax -5.45472 1.55075 -5.89872
lowerneck 6.08743 -0.906697 -4.56464
upperneck 15.3244 -1.41686 2.45445
head 4.03504 -0.794888 1.6017
rclavicle 5.28767e-014 -4.09496e-014
rhumerus 13.2803 -6.36913 -94.9797
rradius 13.9431
rwrist 23.9948
rhand -19.5662 15.8952
rfingers 7.12502
rthumb 6.7586 -13.977
lclavicle 5.28767e-014 -4.09496e-014
lhumerus -16.2817 -4.10758 85.6883
lradius 80.4073
lwrist 2.71016
lhand -13.4495 -9.96226
lfingers 7.12502
lthumb 12.6599 19.6341
rfemur -29.5067 -24.4982 20.6036
rtibia 59.4207
rfoot -25.0505 -362.521
rtoes -8.59036
lfemur -35.4868 4.22026 -19.5712
ltibia 64.4767
lfoot -21.1955 -14.1162
ltoes -6.13254
83
root 0.848226 16.1331 -16.0341 353.676 15.9781 -2.11557
lowerback 51.2308 0.819915 2.73625
upperback 13.4289 2.33744 -3.50094
thorax -5.52174 1.5933 -6.01625
lowerneck 5.82771 -1.07648 -4.59119
upperneck 15.316 -1.63773 2.5356
head 4.09165 -0.898706 1.63066
rclavicle 2.80286e-014 -7.35503e-015
rhumerus 14.1496 -7.09045 -94.9163
rradius 13.6036
rwrist 24.5861
rhand -19.8033 15.9806
rfingers 7.12502
rthumb 6.52968 -13.8987
lclavicle 2.80286e-014 -7.35503e-015
lhumerus -16.1967 -4.0845 85.7508
lradius 80.2189
lwrist 2.50539
lhand -13.3573 -10.151
lfingers 7.12502
lthumb 12.7488 19.4398
rfemur -30.3509 -24.9204 20.7128
rtibia 60.6448
rfoot -25.5036 -362.195
rtoes -8.20542
lfemur -36.3565 4.15654 -19.5519
ltibia 65.6578
lfoot -21.6438 -14.1179
ltoes -6.08328
84
root 0.817974 16.052 -16.0301 353.759 16.1259 -2.09349
lowerback 51.9491 0.778994 2.93125
upperback 13.4488 2.41069 -3.49339
thorax -5.56685 1.64243 -6.13554
lowerneck 5.57226 -1.23436 -4.66103
upperneck 15.3105 -1.84388 2.61724
head 4.14938 -0.997558 1.66738
rclavicle 3.39922e-014 1.17283e-014
rhumerus 15.1025 -7.89875 -94.8767
rradius 13.2169
rwrist 25.2489
rhand -19.9923 16.0288
rfingers 7.12502
rthumb 6.34727 -13.8561
lclavicle 3.39922e-014 1.17283e-014
lhumerus -16.0771 -4.03773 85.8106
lradius 79.9586
lwrist 2.30289
lhand -13.2443 -10.2855
lfingers 7.12502
lthumb 12.8577 19.2985
rfemur -31.2204 -25.3523 20.8194
rtibia 61.9202
rfoot -25.9638 -361.831
rtoes -8.08059
lfemur -37.2153 4.14538 -19.5155
ltibia 66.856
lfoot -22.0775 -14.1933
ltoes -5.90689
85
root 0.789881 15.9683 -16.0254 353.86 16.2567 -2.0517
lowerback 52.6285 0.751823 3.08967
upperback 13.4796 2.48591 -3.46723
thorax -5.59115 1.69066 -6.21667
lowerneck 5.32278 -1.39716 -4.7798
upperneck 15.2758 -2.05668 2.69161
head 4.19721 -1.10237 1.70962
rclavicle 3.33958e-014 -4.26393e-014
rhumerus 16.1156 -8.72007 -94.833
rradius 12.7842
rwrist 26.001
rhand -20.2211 16.0743
rfingers 7.12502
rthumb 6.12632 -13.8171
lclavicle 3.33958e-014 -4.26393e-014
lhumerus -15.9581 -3.94424 85.9112
lradius 79.6511
lwrist 2.07843
lhand -13.0514 -10.2937
lfingers 7.12502
lthumb 13.0436 19.2784
rfemur -32.1175 -25.7967 20.9071
rtibia 63.2251
rfoot -26.4178 -361.458
rtoes -7.88893
lfemur -38.0858 4.14126 -19.4924
ltibia 68.0605
lfoot -22.5083 -14.3257
ltoes -5.76443
86
root 0.762789 15.8798 -16.0213 353.949 16.3942 -2.01312
lowerback 53.2654 0.721563 3.24837
upperback 13.5566 2.56506 -3.40774
thorax -5.55444 1.74176 -6.25998
lowerneck 5.06828 -1.55455 -4.95625
upperneck 15.2233 -2.26277 2.76913
head 4.24136 -1.2067 1.76294
rclavicle 8.24956e-015 -4.07509e-014
rhumerus 17.1644 -9.31901 -94.6643
rradius 12.4038
rwrist 26.5248
rhand -20.3503 16.0484
rfingers 7.12502
rthumb 6.00161 -13.8466
lclavicle 8.24956e-015 -4.07509e-014
lhumerus -15.7691 -3.83882 86.0654
lradius 79.2701
lwrist 1.87132
lhand -12.8993 -10.2594
lfingers 7.12502
lthumb 13.1903 19.3033
rfemur -33.0552 -26.2599 20.9863
rtibia 64.5957
rfoot -26.8462 -361.058
rtoes -7.73506
lfemur -38.972 4.11773 -19.4634
ltibia 69.2887
lfoot -22.9326 -14.4726
ltoes -5.60609
87
root 0.738991 15.7887 -16.0172 354.04 16.4922 -1.96824
lowerback 53.9048 0.689161 3.41324
upperback 13.6265 2.64422 -3.36463
thorax -5.52068 1.79367 -6.3235
lowerneck 4.79896 -1.7175 -5.10496
upperneck 15.1797 -2.47053 2.81115
head 4.29106 -1.31153 1.79865
rclavicle 8.92046e-015 -7.88927e-015
rhumerus 18.2302 -9.99349 -94.537
rradius 12.0174
rwrist 27.1582
rhand -20.4737 16.0462
rfingers 7.12502
rthumb 5.88247 -13.8522
lclavicle 8.92046e-015 -7.88927e-015
lhumerus -15.5846 -3.75707 86.1941
lradius 78.8518
lwrist 1.70073
lhand -12.7889 -10.1711
lfingers 7.12502
lthumb 13.2967 19.3847
rfemur -34.0177 -26.7329 21.0512
rtibia 66.0142
rfoot -27.2769 -360.612
rtoes -7.62865
lfemur -39.8652 4.08729 -19.4351
ltibia 70.548
lfoot -23.3532 -14.5981
ltoes -5.3264
88
root 0.716443 15.6933 -16.0139 354.143 16.587 -1.89033
lowerback 54.6001 0.636887 3.56191
upperback 13.6111 2.68763 -3.36944
thorax -5.58558 1.82606 -6.42082
lowerneck 4.63445 -1.86291 -5.13377
upperneck 15.1693 -2.65357 2.81496
head 4.32849 -1.39985 1.80031
rclavicle 3.54085e-014 -1.74434e-014
rhumerus 19.2325 -10.9413 -94.6286
rradius 11.6127
rwrist 28.1281
rhand -20.5691 15.9775
rfingers 7.12502
rthumb 5.79036 -13.9234
lclavicle 3.54085e-014 -1.74434e-014
lhumerus -15.5251 -3.66707 86.2659
lradius 78.4063
lwrist 1.48395
lhand -12.7108 -10.0319
lfingers 7.12502
lthumb 13.372 19.519
rfemur -35.0386 -27.2436 21.0842
rtibia 67.4959
rfoot -27.675 -360.148
rtoes -7.44509
lfemur -40.774 4.05553 -19.4393
ltibia 71.8193
lfoot -23.7803 -14.7629
ltoes -5.15554
